<mxfile host="app.diagrams.net" modified="2024-03-22T00:06:08.775Z" agent="Mozilla/5.0 (X11; Linux x86_64) AppleWebKit/537.36 (KHTML, like Gecko) Chrome/122.0.0.0 Safari/537.36" etag="QSc8OC4boYEqwenlrsYe" version="24.0.7" type="github" pages="2">
  <diagram name="Page-1" id="8pTvr2u8eSxearsXrvaI">
    <mxGraphModel dx="1362" dy="759" grid="1" gridSize="10" guides="1" tooltips="1" connect="1" arrows="1" fold="1" page="1" pageScale="1" pageWidth="827" pageHeight="1169" math="0" shadow="0">
      <root>
        <mxCell id="0" />
        <mxCell id="1" parent="0" />
        <mxCell id="wo7xG17hLIhDxEqsaRnj-3" value="" style="edgeStyle=orthogonalEdgeStyle;rounded=0;orthogonalLoop=1;jettySize=auto;html=1;" parent="1" source="wo7xG17hLIhDxEqsaRnj-1" target="wo7xG17hLIhDxEqsaRnj-2" edge="1">
          <mxGeometry relative="1" as="geometry" />
        </mxCell>
        <mxCell id="wo7xG17hLIhDxEqsaRnj-1" value="用户任务" style="rounded=1;whiteSpace=wrap;html=1;" parent="1" vertex="1">
          <mxGeometry x="60" y="120" width="120" height="60" as="geometry" />
        </mxCell>
        <mxCell id="wo7xG17hLIhDxEqsaRnj-5" value="" style="edgeStyle=orthogonalEdgeStyle;rounded=0;orthogonalLoop=1;jettySize=auto;html=1;" parent="1" source="wo7xG17hLIhDxEqsaRnj-2" target="wo7xG17hLIhDxEqsaRnj-4" edge="1">
          <mxGeometry relative="1" as="geometry" />
        </mxCell>
        <mxCell id="wo7xG17hLIhDxEqsaRnj-2" value="codegen class" style="rounded=1;whiteSpace=wrap;html=1;" parent="1" vertex="1">
          <mxGeometry x="230" y="120" width="120" height="60" as="geometry" />
        </mxCell>
        <mxCell id="wo7xG17hLIhDxEqsaRnj-8" value="" style="edgeStyle=orthogonalEdgeStyle;rounded=0;orthogonalLoop=1;jettySize=auto;html=1;" parent="1" source="wo7xG17hLIhDxEqsaRnj-4" target="wo7xG17hLIhDxEqsaRnj-7" edge="1">
          <mxGeometry relative="1" as="geometry" />
        </mxCell>
        <mxCell id="wo7xG17hLIhDxEqsaRnj-4" value="jar" style="whiteSpace=wrap;html=1;rounded=1;" parent="1" vertex="1">
          <mxGeometry x="390" y="120" width="120" height="60" as="geometry" />
        </mxCell>
        <mxCell id="wo7xG17hLIhDxEqsaRnj-11" value="" style="edgeStyle=orthogonalEdgeStyle;rounded=0;orthogonalLoop=1;jettySize=auto;html=1;" parent="1" source="wo7xG17hLIhDxEqsaRnj-7" target="wo7xG17hLIhDxEqsaRnj-10" edge="1">
          <mxGeometry relative="1" as="geometry" />
        </mxCell>
        <mxCell id="wo7xG17hLIhDxEqsaRnj-7" value="flink run" style="whiteSpace=wrap;html=1;rounded=1;" parent="1" vertex="1">
          <mxGeometry x="540" y="120" width="120" height="60" as="geometry" />
        </mxCell>
        <mxCell id="wo7xG17hLIhDxEqsaRnj-14" value="" style="edgeStyle=orthogonalEdgeStyle;rounded=0;orthogonalLoop=1;jettySize=auto;html=1;" parent="1" source="wo7xG17hLIhDxEqsaRnj-10" target="wo7xG17hLIhDxEqsaRnj-13" edge="1">
          <mxGeometry relative="1" as="geometry" />
        </mxCell>
        <mxCell id="wo7xG17hLIhDxEqsaRnj-10" value="获取 jobid /applicationId" style="whiteSpace=wrap;html=1;rounded=1;" parent="1" vertex="1">
          <mxGeometry x="540" y="220" width="120" height="60" as="geometry" />
        </mxCell>
        <mxCell id="wo7xG17hLIhDxEqsaRnj-16" value="" style="edgeStyle=orthogonalEdgeStyle;rounded=0;orthogonalLoop=1;jettySize=auto;html=1;" parent="1" source="wo7xG17hLIhDxEqsaRnj-13" target="wo7xG17hLIhDxEqsaRnj-15" edge="1">
          <mxGeometry relative="1" as="geometry" />
        </mxCell>
        <mxCell id="wo7xG17hLIhDxEqsaRnj-13" value="监控任务状态" style="whiteSpace=wrap;html=1;rounded=1;" parent="1" vertex="1">
          <mxGeometry x="340" y="220" width="120" height="60" as="geometry" />
        </mxCell>
        <mxCell id="wo7xG17hLIhDxEqsaRnj-15" value="状态告警/定期 checkpoint" style="whiteSpace=wrap;html=1;rounded=1;" parent="1" vertex="1">
          <mxGeometry x="140" y="220" width="120" height="60" as="geometry" />
        </mxCell>
        <mxCell id="wo7xG17hLIhDxEqsaRnj-19" value="" style="edgeStyle=orthogonalEdgeStyle;rounded=0;orthogonalLoop=1;jettySize=auto;html=1;" parent="1" source="wo7xG17hLIhDxEqsaRnj-17" target="wo7xG17hLIhDxEqsaRnj-18" edge="1">
          <mxGeometry relative="1" as="geometry" />
        </mxCell>
        <mxCell id="wo7xG17hLIhDxEqsaRnj-28" style="edgeStyle=orthogonalEdgeStyle;rounded=0;orthogonalLoop=1;jettySize=auto;html=1;entryX=0;entryY=0.5;entryDx=0;entryDy=0;" parent="1" source="wo7xG17hLIhDxEqsaRnj-17" target="wo7xG17hLIhDxEqsaRnj-26" edge="1">
          <mxGeometry relative="1" as="geometry" />
        </mxCell>
        <mxCell id="wo7xG17hLIhDxEqsaRnj-17" value="用户 sql" style="rounded=1;whiteSpace=wrap;html=1;" parent="1" vertex="1">
          <mxGeometry x="60" y="330" width="120" height="60" as="geometry" />
        </mxCell>
        <mxCell id="wo7xG17hLIhDxEqsaRnj-21" value="" style="edgeStyle=orthogonalEdgeStyle;rounded=0;orthogonalLoop=1;jettySize=auto;html=1;" parent="1" source="wo7xG17hLIhDxEqsaRnj-18" target="wo7xG17hLIhDxEqsaRnj-20" edge="1">
          <mxGeometry relative="1" as="geometry" />
        </mxCell>
        <mxCell id="wo7xG17hLIhDxEqsaRnj-18" value="sql&amp;nbsp; parse 参数补充" style="whiteSpace=wrap;html=1;rounded=1;" parent="1" vertex="1">
          <mxGeometry x="240" y="330" width="120" height="60" as="geometry" />
        </mxCell>
        <mxCell id="wo7xG17hLIhDxEqsaRnj-23" value="" style="edgeStyle=orthogonalEdgeStyle;rounded=0;orthogonalLoop=1;jettySize=auto;html=1;" parent="1" source="wo7xG17hLIhDxEqsaRnj-20" target="wo7xG17hLIhDxEqsaRnj-22" edge="1">
          <mxGeometry relative="1" as="geometry" />
        </mxCell>
        <mxCell id="wo7xG17hLIhDxEqsaRnj-20" value="固定的 jar" style="whiteSpace=wrap;html=1;rounded=1;" parent="1" vertex="1">
          <mxGeometry x="440" y="330" width="120" height="60" as="geometry" />
        </mxCell>
        <mxCell id="wo7xG17hLIhDxEqsaRnj-25" value="" style="edgeStyle=orthogonalEdgeStyle;rounded=0;orthogonalLoop=1;jettySize=auto;html=1;" parent="1" source="wo7xG17hLIhDxEqsaRnj-22" target="wo7xG17hLIhDxEqsaRnj-24" edge="1">
          <mxGeometry relative="1" as="geometry" />
        </mxCell>
        <mxCell id="wo7xG17hLIhDxEqsaRnj-22" value="flink run" style="whiteSpace=wrap;html=1;rounded=1;" parent="1" vertex="1">
          <mxGeometry x="640" y="330" width="120" height="60" as="geometry" />
        </mxCell>
        <mxCell id="wo7xG17hLIhDxEqsaRnj-24" value="main args获取 sql 脚本地址, env.excute(sql)" style="whiteSpace=wrap;html=1;rounded=1;" parent="1" vertex="1">
          <mxGeometry x="640" y="430" width="120" height="60" as="geometry" />
        </mxCell>
        <mxCell id="wo7xG17hLIhDxEqsaRnj-26" value="sql 调优" style="rounded=1;whiteSpace=wrap;html=1;" parent="1" vertex="1">
          <mxGeometry x="240" y="440" width="120" height="60" as="geometry" />
        </mxCell>
        <mxCell id="wo7xG17hLIhDxEqsaRnj-41" value="" style="edgeStyle=orthogonalEdgeStyle;rounded=0;orthogonalLoop=1;jettySize=auto;html=1;" parent="1" source="wo7xG17hLIhDxEqsaRnj-29" target="wo7xG17hLIhDxEqsaRnj-40" edge="1">
          <mxGeometry relative="1" as="geometry" />
        </mxCell>
        <mxCell id="wo7xG17hLIhDxEqsaRnj-29" value="graph" style="rounded=1;whiteSpace=wrap;html=1;" parent="1" vertex="1">
          <mxGeometry x="30" y="680" width="120" height="60" as="geometry" />
        </mxCell>
        <mxCell id="wo7xG17hLIhDxEqsaRnj-34" value="" style="edgeStyle=orthogonalEdgeStyle;rounded=0;orthogonalLoop=1;jettySize=auto;html=1;" parent="1" source="wo7xG17hLIhDxEqsaRnj-31" target="wo7xG17hLIhDxEqsaRnj-33" edge="1">
          <mxGeometry relative="1" as="geometry" />
        </mxCell>
        <mxCell id="wo7xG17hLIhDxEqsaRnj-36" value="" style="edgeStyle=orthogonalEdgeStyle;rounded=0;orthogonalLoop=1;jettySize=auto;html=1;" parent="1" source="wo7xG17hLIhDxEqsaRnj-31" target="wo7xG17hLIhDxEqsaRnj-35" edge="1">
          <mxGeometry relative="1" as="geometry" />
        </mxCell>
        <mxCell id="wo7xG17hLIhDxEqsaRnj-31" value="&lt;div style=&quot;background-color:#2b2b2b;color:#a9b7c6&quot;&gt;&lt;pre style=&quot;font-family:&#39;JetBrains Mono&#39;,monospace;font-size:9.8pt;&quot;&gt;StreamNode&lt;/pre&gt;&lt;/div&gt;" style="whiteSpace=wrap;html=1;rounded=1;" parent="1" vertex="1">
          <mxGeometry x="290" y="810" width="120" height="60" as="geometry" />
        </mxCell>
        <mxCell id="wo7xG17hLIhDxEqsaRnj-38" value="" style="edgeStyle=orthogonalEdgeStyle;rounded=0;orthogonalLoop=1;jettySize=auto;html=1;" parent="1" source="wo7xG17hLIhDxEqsaRnj-33" target="wo7xG17hLIhDxEqsaRnj-37" edge="1">
          <mxGeometry relative="1" as="geometry" />
        </mxCell>
        <mxCell id="wo7xG17hLIhDxEqsaRnj-33" value="&lt;div style=&quot;background-color:#2b2b2b;color:#a9b7c6&quot;&gt;&lt;pre style=&quot;font-family:&#39;JetBrains Mono&#39;,monospace;font-size:9.8pt;&quot;&gt;edges&lt;/pre&gt;&lt;/div&gt;" style="whiteSpace=wrap;html=1;rounded=1;" parent="1" vertex="1">
          <mxGeometry x="490" y="810" width="120" height="60" as="geometry" />
        </mxCell>
        <mxCell id="wo7xG17hLIhDxEqsaRnj-35" value="改并行度" style="whiteSpace=wrap;html=1;rounded=1;" parent="1" vertex="1">
          <mxGeometry x="290" y="950" width="120" height="60" as="geometry" />
        </mxCell>
        <mxCell id="wo7xG17hLIhDxEqsaRnj-37" value="改 shuffle" style="whiteSpace=wrap;html=1;rounded=1;" parent="1" vertex="1">
          <mxGeometry x="490" y="950" width="120" height="60" as="geometry" />
        </mxCell>
        <mxCell id="wo7xG17hLIhDxEqsaRnj-42" style="edgeStyle=orthogonalEdgeStyle;rounded=0;orthogonalLoop=1;jettySize=auto;html=1;entryX=0;entryY=0.5;entryDx=0;entryDy=0;" parent="1" source="wo7xG17hLIhDxEqsaRnj-40" target="wo7xG17hLIhDxEqsaRnj-31" edge="1">
          <mxGeometry relative="1" as="geometry" />
        </mxCell>
        <mxCell id="wo7xG17hLIhDxEqsaRnj-40" value="固定 UUID 算法&lt;br&gt;chain/前向节点的hash值有关" style="whiteSpace=wrap;html=1;rounded=1;fillColor=#f8cecc;strokeColor=#b85450;" parent="1" vertex="1">
          <mxGeometry x="30" y="810" width="120" height="60" as="geometry" />
        </mxCell>
        <mxCell id="wo7xG17hLIhDxEqsaRnj-43" value="对增加&amp;nbsp; elt" style="text;html=1;align=center;verticalAlign=middle;whiteSpace=wrap;rounded=0;" parent="1" vertex="1">
          <mxGeometry x="80" y="965" width="60" height="30" as="geometry" />
        </mxCell>
        <mxCell id="wo7xG17hLIhDxEqsaRnj-45" value="" style="rounded=1;whiteSpace=wrap;html=1;" parent="1" vertex="1">
          <mxGeometry x="35" y="1110" width="265" height="240" as="geometry" />
        </mxCell>
        <mxCell id="wo7xG17hLIhDxEqsaRnj-46" value="client" style="text;html=1;align=center;verticalAlign=middle;whiteSpace=wrap;rounded=0;" parent="1" vertex="1">
          <mxGeometry x="40" y="1081" width="60" height="30" as="geometry" />
        </mxCell>
        <mxCell id="wo7xG17hLIhDxEqsaRnj-47" value="class.forName(dirverClazz)&lt;br&gt;Connection con = DriverManager.getConnection()&lt;br&gt;&lt;br&gt;&lt;div&gt;statement = connection.createStatement();&lt;/div&gt;&lt;div&gt;statement.execute(sql);&lt;/div&gt;&lt;div&gt;resultSet = statement.getResultSet();&lt;/div&gt;" style="text;html=1;align=left;verticalAlign=middle;whiteSpace=wrap;rounded=0;" parent="1" vertex="1">
          <mxGeometry x="57.5" y="1140" width="220" height="120" as="geometry" />
        </mxCell>
        <mxCell id="wo7xG17hLIhDxEqsaRnj-48" value="JDBC driver" style="rounded=1;whiteSpace=wrap;html=1;" parent="1" vertex="1">
          <mxGeometry x="140" y="1450" width="120" height="60" as="geometry" />
        </mxCell>
        <mxCell id="wo7xG17hLIhDxEqsaRnj-49" value="server1" style="rounded=1;whiteSpace=wrap;html=1;" parent="1" vertex="1">
          <mxGeometry x="340" y="1340" width="120" height="60" as="geometry" />
        </mxCell>
        <mxCell id="wo7xG17hLIhDxEqsaRnj-50" value="server2" style="rounded=1;whiteSpace=wrap;html=1;" parent="1" vertex="1">
          <mxGeometry x="530" y="1340" width="120" height="60" as="geometry" />
        </mxCell>
        <mxCell id="wo7xG17hLIhDxEqsaRnj-53" value="" style="endArrow=classic;html=1;rounded=0;exitX=1;exitY=0.5;exitDx=0;exitDy=0;entryX=0.5;entryY=1;entryDx=0;entryDy=0;" parent="1" source="wo7xG17hLIhDxEqsaRnj-48" target="wo7xG17hLIhDxEqsaRnj-49" edge="1">
          <mxGeometry width="50" height="50" relative="1" as="geometry">
            <mxPoint x="400" y="1240" as="sourcePoint" />
            <mxPoint x="450" y="1190" as="targetPoint" />
          </mxGeometry>
        </mxCell>
        <mxCell id="wo7xG17hLIhDxEqsaRnj-54" value="" style="endArrow=classic;html=1;rounded=0;entryX=0.5;entryY=1;entryDx=0;entryDy=0;" parent="1" target="wo7xG17hLIhDxEqsaRnj-50" edge="1">
          <mxGeometry width="50" height="50" relative="1" as="geometry">
            <mxPoint x="260" y="1480" as="sourcePoint" />
            <mxPoint x="410" y="1410" as="targetPoint" />
          </mxGeometry>
        </mxCell>
        <mxCell id="wo7xG17hLIhDxEqsaRnj-55" value="获取连接地址" style="text;html=1;align=center;verticalAlign=middle;resizable=0;points=[];autosize=1;strokeColor=none;fillColor=none;" parent="1" vertex="1">
          <mxGeometry x="294" y="1430" width="100" height="30" as="geometry" />
        </mxCell>
        <mxCell id="wo7xG17hLIhDxEqsaRnj-57" value="FederalDriver extends Driver" style="rounded=1;whiteSpace=wrap;html=1;" parent="1" vertex="1">
          <mxGeometry x="50" y="1560" width="200" height="60" as="geometry" />
        </mxCell>
        <mxCell id="wo7xG17hLIhDxEqsaRnj-58" value="FederalJdbc41Factory implements AvaticaFactory" style="rounded=1;whiteSpace=wrap;html=1;" parent="1" vertex="1">
          <mxGeometry x="277.5" y="1560" width="312.5" height="60" as="geometry" />
        </mxCell>
        <mxCell id="wo7xG17hLIhDxEqsaRnj-59" value="FederalJdbcConnection extends AvaticaConnection&amp;nbsp;implements Connection" style="rounded=1;whiteSpace=wrap;html=1;" parent="1" vertex="1">
          <mxGeometry x="620" y="1560" width="312.5" height="60" as="geometry" />
        </mxCell>
        <mxCell id="wo7xG17hLIhDxEqsaRnj-61" value="public Connection connect(String url, Properties info)" style="text;html=1;align=center;verticalAlign=middle;resizable=0;points=[];autosize=1;strokeColor=none;fillColor=none;" parent="1" vertex="1">
          <mxGeometry x="30" y="1650" width="300" height="30" as="geometry" />
        </mxCell>
        <mxCell id="wo7xG17hLIhDxEqsaRnj-62" value="return connection = factory.newConnection" style="text;html=1;align=center;verticalAlign=middle;resizable=0;points=[];autosize=1;strokeColor=none;fillColor=none;" parent="1" vertex="1">
          <mxGeometry x="45" y="1680" width="250" height="30" as="geometry" />
        </mxCell>
        <mxCell id="wo7xG17hLIhDxEqsaRnj-63" value="public AvaticaConnection newConnection" style="text;html=1;align=center;verticalAlign=middle;resizable=0;points=[];autosize=1;strokeColor=none;fillColor=none;" parent="1" vertex="1">
          <mxGeometry x="330" y="1650" width="240" height="30" as="geometry" />
        </mxCell>
        <mxCell id="wo7xG17hLIhDxEqsaRnj-64" value="return new FederalJdbcConnection(driver, factory, url, info);" style="text;html=1;align=center;verticalAlign=middle;resizable=0;points=[];autosize=1;strokeColor=none;fillColor=none;" parent="1" vertex="1">
          <mxGeometry x="360" y="1680" width="340" height="30" as="geometry" />
        </mxCell>
        <mxCell id="wo7xG17hLIhDxEqsaRnj-66" value="protected final Meta meta&lt;br&gt;&lt;div&gt;AvaticaSpecificDatabaseMetaData metaData;&lt;/div&gt;&lt;div&gt;Map&amp;lt;Integer, AvaticaStatement&amp;gt; statementMap = new ConcurrentHashMap&amp;lt;&amp;gt;();&lt;/div&gt;&lt;div&gt;WatchDog watchDog&lt;br&gt;&lt;/div&gt;" style="text;html=1;align=left;verticalAlign=middle;resizable=0;points=[];autosize=1;strokeColor=none;fillColor=none;" parent="1" vertex="1">
          <mxGeometry x="720" y="1630" width="450" height="70" as="geometry" />
        </mxCell>
        <mxCell id="wo7xG17hLIhDxEqsaRnj-68" value="FederalMeta extends MetaImpl implements Meta" style="rounded=1;whiteSpace=wrap;html=1;" parent="1" vertex="1">
          <mxGeometry x="1270" y="1560" width="190" height="60" as="geometry" />
        </mxCell>
        <mxCell id="wo7xG17hLIhDxEqsaRnj-70" value="FederalRemoteSvc extends JsonService extaneds AbstractService implements Service" style="text;html=1;align=center;verticalAlign=middle;resizable=0;points=[];autosize=1;strokeColor=none;fillColor=none;" parent="1" vertex="1">
          <mxGeometry x="1505" y="1560" width="490" height="30" as="geometry" />
        </mxCell>
        <mxCell id="wo7xG17hLIhDxEqsaRnj-71" value="RemoteMeta extends MetaImpl implements Meta" style="rounded=1;whiteSpace=wrap;html=1;" parent="1" vertex="1">
          <mxGeometry x="1270" y="1724" width="190" height="60" as="geometry" />
        </mxCell>
        <mxCell id="wo7xG17hLIhDxEqsaRnj-73" value="AvaticaHttpClient client" style="text;html=1;align=center;verticalAlign=middle;resizable=0;points=[];autosize=1;strokeColor=none;fillColor=none;" parent="1" vertex="1">
          <mxGeometry x="1525" y="1588" width="150" height="30" as="geometry" />
        </mxCell>
        <mxCell id="wo7xG17hLIhDxEqsaRnj-74" value="prepareAndExecute" style="text;html=1;align=center;verticalAlign=middle;whiteSpace=wrap;rounded=0;" parent="1" vertex="1">
          <mxGeometry x="50" y="1890" width="140" height="50" as="geometry" />
        </mxCell>
        <mxCell id="wo7xG17hLIhDxEqsaRnj-75" value="federalStatement.prepare(sql 。。。）" style="text;html=1;align=center;verticalAlign=middle;resizable=0;points=[];autosize=1;strokeColor=none;fillColor=none;" parent="1" vertex="1">
          <mxGeometry x="65" y="1930" width="230" height="30" as="geometry" />
        </mxCell>
        <mxCell id="wo7xG17hLIhDxEqsaRnj-76" value="federalStatement.execute" style="text;html=1;align=center;verticalAlign=middle;resizable=0;points=[];autosize=1;strokeColor=none;fillColor=none;" parent="1" vertex="1">
          <mxGeometry x="60" y="1968" width="160" height="30" as="geometry" />
        </mxCell>
        <mxCell id="wo7xG17hLIhDxEqsaRnj-77" value="服务端&amp;nbsp; statement&amp;nbsp; prepare" style="rounded=1;whiteSpace=wrap;html=1;" parent="1" vertex="1">
          <mxGeometry x="47.5" y="2040" width="230" height="50" as="geometry" />
        </mxCell>
        <mxCell id="wo7xG17hLIhDxEqsaRnj-80" value="" style="endArrow=none;dashed=1;html=1;dashPattern=1 3;strokeWidth=2;rounded=0;" parent="1" edge="1">
          <mxGeometry width="50" height="50" relative="1" as="geometry">
            <mxPoint x="160" y="2530" as="sourcePoint" />
            <mxPoint x="160" y="2090" as="targetPoint" />
          </mxGeometry>
        </mxCell>
        <mxCell id="wo7xG17hLIhDxEqsaRnj-81" value="Text" style="text;html=1;align=center;verticalAlign=middle;whiteSpace=wrap;rounded=0;" parent="1" vertex="1">
          <mxGeometry x="170" y="2120" width="60" height="30" as="geometry" />
        </mxCell>
      </root>
    </mxGraphModel>
  </diagram>
  <diagram id="r4DQSb-dLOYDTUw0fpHc" name="flink 启动流程">
    <mxGraphModel dx="1362" dy="759" grid="1" gridSize="10" guides="1" tooltips="1" connect="1" arrows="1" fold="1" page="1" pageScale="1" pageWidth="850" pageHeight="1100" math="0" shadow="0">
      <root>
        <mxCell id="0" />
        <mxCell id="1" parent="0" />
        <mxCell id="7JwdACaMwQVdJiAhYtiJ-8" value="" style="group" vertex="1" connectable="0" parent="1">
          <mxGeometry x="80" y="120" width="710" height="210" as="geometry" />
        </mxCell>
        <mxCell id="7JwdACaMwQVdJiAhYtiJ-6" value="" style="rounded=1;whiteSpace=wrap;html=1;movable=1;resizable=1;rotatable=1;deletable=1;editable=1;locked=0;connectable=1;" vertex="1" parent="7JwdACaMwQVdJiAhYtiJ-8">
          <mxGeometry width="700" height="210" as="geometry" />
        </mxCell>
        <mxCell id="7JwdACaMwQVdJiAhYtiJ-4" value="org.apache.flink.client.cli.CliFrontend#main&lt;div&gt;&amp;nbsp; - 加载配置&lt;/div&gt;&lt;div&gt;&amp;nbsp; - 解析 commond&lt;/div&gt;&lt;div&gt;&amp;nbsp; - 构建 CliFrontend&amp;nbsp; 执行 parseAndRun 方法 根据指令执行 run 方法&lt;/div&gt;&lt;div&gt;&amp;nbsp; - 选择启动方式&amp;nbsp;CustomCommandLine（GenericCLI/FlinkYarnSessionCli/DefaultCli）&lt;/div&gt;&lt;div&gt;&amp;nbsp; -&amp;nbsp;getJobJarAndDependencies&lt;/div&gt;&lt;div&gt;&amp;nbsp; -&amp;nbsp;getEffectiveConfiguration&lt;/div&gt;&lt;div&gt;&amp;nbsp; - 把配置 依赖包装成一个&amp;nbsp;PackagedProgram&amp;nbsp; 然后&amp;nbsp; ClientUtils.executeProgram(executorServiceLoader，conf，program...)&lt;/div&gt;&lt;div&gt;&amp;nbsp; - 初始化 flink&amp;nbsp;Environment&amp;nbsp; 应该是放在了 ThreadLocal 的变量中 方便在 用户代码的 main 方法或通过 api 去获取 env&lt;/div&gt;&lt;div&gt;&amp;nbsp; -&amp;nbsp; 反射调用 用户的 main 函数&lt;/div&gt;&lt;div&gt;&lt;br&gt;&lt;/div&gt;" style="text;html=1;align=left;verticalAlign=middle;resizable=1;points=[];autosize=1;strokeColor=none;fillColor=none;movable=1;rotatable=1;deletable=1;editable=1;locked=0;connectable=1;" vertex="1" parent="7JwdACaMwQVdJiAhYtiJ-8">
          <mxGeometry x="30" y="40" width="680" height="170" as="geometry" />
        </mxCell>
        <mxCell id="7JwdACaMwQVdJiAhYtiJ-7" value="CliFronted" style="text;html=1;align=center;verticalAlign=middle;whiteSpace=wrap;rounded=0;movable=1;resizable=1;rotatable=1;deletable=1;editable=1;locked=0;connectable=1;" vertex="1" parent="7JwdACaMwQVdJiAhYtiJ-8">
          <mxGeometry x="20" width="60" height="30" as="geometry" />
        </mxCell>
        <mxCell id="7JwdACaMwQVdJiAhYtiJ-9" value="" style="group" vertex="1" connectable="0" parent="1">
          <mxGeometry x="20" y="50" width="211" height="60" as="geometry" />
        </mxCell>
        <mxCell id="7JwdACaMwQVdJiAhYtiJ-1" value="Actor" style="shape=umlActor;verticalLabelPosition=bottom;verticalAlign=top;html=1;outlineConnect=0;" vertex="1" parent="7JwdACaMwQVdJiAhYtiJ-9">
          <mxGeometry width="30" height="60" as="geometry" />
        </mxCell>
        <mxCell id="7JwdACaMwQVdJiAhYtiJ-2" value="flink run -m yarn-clusert ..." style="text;html=1;align=center;verticalAlign=middle;whiteSpace=wrap;rounded=0;" vertex="1" parent="7JwdACaMwQVdJiAhYtiJ-9">
          <mxGeometry x="21" y="5" width="190" height="35" as="geometry" />
        </mxCell>
        <mxCell id="7JwdACaMwQVdJiAhYtiJ-11" value="用户 jar&lt;div&gt;&amp;nbsp; - main&amp;nbsp; StreamExecutionEnvironment#execute(java.lang.String)&lt;/div&gt;&lt;div&gt;&amp;nbsp; &amp;nbsp; -&amp;nbsp; 生成&amp;nbsp;StreamGraph streamGraph&lt;/div&gt;&lt;div&gt;&amp;nbsp; &amp;nbsp; - AbstractJobClusterExecutor#execute(streamGraph)&lt;/div&gt;&lt;div&gt;&amp;nbsp; &amp;nbsp; - 把 streamGraph 转成&amp;nbsp;JobGraph jobGraph&lt;/div&gt;&lt;div&gt;&amp;nbsp; &amp;nbsp; - 生成&amp;nbsp;ClusterDescriptor 执行&amp;nbsp;deployJobCluster 对于 yarn 来说会初始化 一个 yarnClient&lt;/div&gt;&lt;div&gt;&amp;nbsp; &amp;nbsp; - 检测 yarn queue / 资源 等&lt;/div&gt;&lt;div&gt;&amp;nbsp; &amp;nbsp; - 启动&amp;nbsp;startAppMaster&lt;/div&gt;&lt;div&gt;&amp;nbsp; &amp;nbsp; -&amp;nbsp;&lt;/div&gt;&lt;div&gt;&amp;nbsp; &amp;nbsp; -&amp;nbsp;&lt;/div&gt;" style="text;html=1;align=left;verticalAlign=middle;resizable=0;points=[];autosize=1;strokeColor=none;fillColor=none;" vertex="1" parent="1">
          <mxGeometry x="60" y="340" width="500" height="160" as="geometry" />
        </mxCell>
      </root>
    </mxGraphModel>
  </diagram>
</mxfile>
